<svg width="24" height="24" xmlns="http://www.w3.org/2000/svg">

 <g>
  <title>Layer 1</title>
  <path id="svg_1" d="m18.0625,20.31246c0,-1.656 -1.344,-3 -3,-3l-15,0l0,2l15,0c0.552,0 1,0.448 1,1s-0.448,1 -1,1c-0.403,0 -0.747,-0.242 -0.905,-0.587l-1.749,0.956c0.499,0.965 1.494,1.631 2.654,1.631c1.656,0 3,-1.344 3,-3zm1.014,-7.655c0.082,-0.753 0.712,-1.345 1.486,-1.345c0.827,0 1.5,0.673 1.5,1.5s-0.673,1.5 -1.5,1.5l-20.5,0l0,2l20.5,0c1.932,0 3.5,-1.568 3.5,-3.5s-1.568,-3.5 -3.5,-3.5c-1.624,0 -2.977,1.116 -3.372,2.617l1.886,0.728z"/>
  <line stroke-width="2" stroke-linecap="undefined" stroke-linejoin="undefined" id="svg_2" y2="10.37502" x2="11.03126" y1="2.56261" x1="11.03126" stroke="#000" fill="none"/>
  <rect id="svg_3" width="0.0625" y="8.75004" x="8.65629" stroke-width="2" stroke="#000" fill="none"/>
  <path id="svg_6" d="m9.80799,8.67035l1.24999,1.99998l1.24999,-1.99998l-2.49997,0z" stroke-width="2" stroke="#000" fill="none"/>
  <path id="svg_8" d="m15.59371,6.25007" opacity="NaN" stroke-width="2" stroke="#000" fill="none"/>
  <path id="svg_9" d="m15.34371,5.93757" opacity="NaN" stroke-width="2" stroke="#000" fill="none"/>
 </g>
</svg>